<svg width="40" height="40" viewBox="0 0 40 40" fill="none" xmlns="http://www.w3.org/2000/svg">
<path d="M14.0888 28.5506C14.8454 29.2695 14.8454 30.4351 14.0888 31.154C13.3321 31.873 12.1054 31.873 11.3487 31.154C10.5921 30.4351 10.5921 29.2695 11.3487 28.5506C12.1054 27.8317 13.3321 27.8317 14.0888 28.5506" fill="white"/>
<path d="M28.62 28.5506C29.3767 29.2695 29.3767 30.4351 28.62 31.154C27.8634 31.873 26.6366 31.873 25.88 31.154C25.1233 30.4351 25.1233 29.2695 25.88 28.5506C26.6366 27.8317 27.8634 27.8317 28.62 28.5506Z" fill="white"/>
<path d="M8.84377 12.3637H29.9644V12.3637C30.4994 12.3637 30.9331 12.7758 30.9331 13.2841C30.9331 13.3393 30.9279 13.3944 30.9175 13.4487L28.8051 24.4942V24.4942C28.7214 24.9319 28.3201 25.2501 27.8519 25.2501H12.1276V25.2501C11.6596 25.2501 11.2586 24.9322 11.1746 24.4948L8.10804 8.51677H8.10804C8.02408 8.07932 7.623 7.76144 7.155 7.76144H5.45312" stroke="white" stroke-width="2.25" stroke-linecap="round" stroke-linejoin="round"/>
</svg>
