<?xml version="1.0" encoding="UTF-8"?><svg width="30" height="30" version="1.1" viewBox="0 0 30 30" xmlns="http://www.w3.org/2000/svg" xmlns:xlink="http://www.w3.org/1999/xlink"><!--Generated by IJSVG (https://github.com/iconjar/IJSVG)--><g transform="scale(0.117188)"><path fill="none" d="M0,0h256v256h-256Z"></path><path fill="none" stroke="#FFF" stroke-linecap="round" stroke-linejoin="round" stroke-width="16" d="M128,55.9922c-80,0 -112,72.0078 -112,72.0078c0,0 32,71.9922 112,71.9922c80,0 112,-71.9922 112,-71.9922c0,0 -32,-72.0078 -112,-72.0078Z"></path><path fill="none" stroke="#FFF" stroke-linecap="round" stroke-linejoin="round" stroke-width="16" d="M156.284,99.7163c15.621,15.621 15.621,40.9476 0,56.5685c-15.621,15.621 -40.9476,15.621 -56.5685,0c-15.621,-15.621 -15.621,-40.9476 0,-56.5685c15.621,-15.621 40.9476,-15.621 56.5685,0"></path></g></svg>