<svg width="40" height="40" viewBox="0 0 40 40" fill="none" xmlns="http://www.w3.org/2000/svg">
<path fill-rule="evenodd" clip-rule="evenodd" d="M18 6C19.1046 6 20 5.10457 20 4C20 2.89543 19.1046 2 18 2C16.8954 2 16 2.89543 16 4C16 5.10457 16.8954 6 18 6ZM20 14C20 18.4183 16.4183 22 12 22C7.58172 22 4 18.4183 4 14C4 9.58172 7.58172 6 12 6C16.4177 6 19.999 9.58073 20 13.9982V14ZM20 13.9982C20.0001 13.4773 20.0511 12.9551 20.1537 12.4393C20.4624 10.8874 21.2243 9.46197 22.3431 8.34315C23.462 7.22433 24.8874 6.4624 26.4393 6.15372C27.9911 5.84504 29.5997 6.00347 31.0615 6.60897C32.5233 7.21447 33.7727 8.23985 34.6518 9.55544C35.5308 10.871 36 12.4178 36 14H32C32 13.2089 31.7654 12.4355 31.3259 11.7777C30.8864 11.1199 30.2616 10.6072 29.5307 10.3045C28.7998 10.0017 27.9956 9.92252 27.2196 10.0769C26.4437 10.2312 25.731 10.6122 25.1716 11.1716C24.6122 11.731 24.2312 12.4437 24.0769 13.2196C23.9225 13.9956 24.0017 14.7998 24.3045 15.5307C24.6072 16.2616 25.1199 16.8864 25.7777 17.3259C26.4355 17.7654 27.2089 18 28 18V22C26.4178 22 24.871 21.5308 23.5554 20.6518C22.2398 19.7727 21.2145 18.5233 20.609 17.0615C20.2047 16.0856 19.9998 15.0443 20 13.9982ZM8 14C8 16.2091 9.79086 18 12 18C14.2091 18 16 16.2091 16 14C16 11.7909 14.2091 10 12 10C9.79086 10 8 11.7909 8 14ZM16 26C16 27.0609 15.5786 28.0783 14.8284 28.8284C14.0783 29.5786 13.0609 30 12 30C10.9391 30 9.92172 29.5786 9.17157 28.8284C8.42143 28.0783 8 27.0609 8 26L4 26C4 27.4165 4.37565 28.7942 5.07177 30C5.41838 30.6004 5.84444 31.1582 6.34315 31.6569C7.84344 33.1571 9.87827 34 12 34C14.1217 34 16.1566 33.1571 17.6569 31.6569C18.1556 31.1582 18.5816 30.6004 18.9282 30C19.6244 28.7942 20 27.4165 20 26C20 27.4165 20.3756 28.7942 21.0718 30C21.4184 30.6004 21.8444 31.1582 22.3431 31.6569C23.8434 33.1571 25.8783 34 28 34C30.1217 34 32.1566 33.1571 33.6569 31.6569C34.1556 31.1582 34.5816 30.6004 34.9282 30C35.6244 28.7942 36 27.4165 36 26H32C32 27.0609 31.5786 28.0783 30.8284 28.8284C30.0783 29.5786 29.0609 30 28 30C26.9391 30 25.9217 29.5786 25.1716 28.8284C24.4214 28.0783 24 27.0609 24 26H20H16Z" fill="white"/>
</svg>
